<svg xmlns="http://www.w3.org/2000/svg" viewBox="0 0 320 200" role="img" aria-label="איור: מישוש דופק רדיאלי בפרק כף היד" font-family="Arial, Helvetica, sans-serif">
<title>איור: מישוש דופק רדיאלי בפרק כף היד</title>
<rect x="1" y="1" width="318" height="198" rx="12" fill="#0d2530" stroke="#ffffff22"/>

<rect x="18" y="78" width="160" height="58" rx="28" fill="#e3b999"/>
<rect x="168" y="70" width="96" height="74" rx="30" fill="#d1a283"/>
<g fill="#d1a283"><rect x="244" y="74" width="58" height="13" rx="6.5"/><rect x="248" y="92" width="58" height="13" rx="6.5"/><rect x="246" y="110" width="56" height="13" rx="6.5"/><rect x="240" y="128" width="46" height="13" rx="6.5"/></g>
<rect x="176" y="50" width="62" height="17" rx="8.5" fill="#d1a283" transform="rotate(-18 176 58)"/>
<g fill="#55d6b2" opacity=".92"><rect x="136" y="22" width="14" height="62" rx="7"/><rect x="153" y="22" width="14" height="62" rx="7"/></g>
<circle cx="150" cy="88" r="7" fill="none" stroke="#f2b94b" stroke-width="2"/><circle cx="150" cy="88" r="13" fill="none" stroke="#f2b94b" stroke-width="1.5" opacity=".6"/>
<text x="160" y="170" font-size="11" fill="#dfe9ec" text-anchor="middle" font-weight="400" direction="rtl">עורק רדיאלי, בצד האגודל של פרק כף היד</text>
<text x="160" y="188" font-size="11" fill="#55d6b2" text-anchor="middle" font-weight="700" direction="rtl">שתי אצבעות, לא האגודל</text>
<text x="255" y="34" font-size="10" fill="#a9bcc3" text-anchor="middle" font-weight="400" direction="rtl">אגודל</text>

</svg>
